<svg width="45" height="45" viewBox="0 0 45 45" fill="none" xmlns="http://www.w3.org/2000/svg">
<g clip-path="url(#clip0_15_410)">
<path d="M11.9961 39.7258C6.59886 34.3286 5.53178 23.5653 14.8551 13.4961C24.1785 3.42692 38.3501 1.18931 44.3169 1.43795C40.5877 4.4214 37.3555 8.39942 38.2257 16.9768C39.0959 25.5543 36.9826 34.3804 29.3996 38.7314C21.8167 43.0823 14.7309 42.4607 11.9961 39.7258Z" fill="url(#paint0_linear_15_410)"/>
<path d="M44.966 1.22508C44.8773 0.954198 44.6299 0.766904 44.3451 0.755038C42.9113 0.695361 38.9924 0.705644 33.5844 2.0886C28.5504 3.37585 23.8265 5.49182 19.9231 8.20781C19.6133 8.42341 19.537 8.84924 19.7524 9.15905C19.9679 9.46887 20.3938 9.54524 20.7037 9.32974C24.4743 6.70594 29.0455 4.65993 33.9229 3.41268C35.7454 2.94659 37.6294 2.59292 39.4158 2.37126C38.6834 2.68758 37.8985 3.05768 37.0815 3.49151C31.5564 6.42451 28.4695 10.1749 26.7637 13.1895C26.5396 12.1836 26.4782 11.0276 26.4777 10.5124C26.4776 10.1351 26.1717 9.82931 25.7944 9.82931C25.417 9.82931 25.111 10.1353 25.111 10.5127C25.111 10.8151 25.1352 13.3354 25.8984 14.889C24.8465 17.1354 23.8625 19.381 22.9103 21.5558C22.506 22.4796 22.1078 23.3887 21.7131 24.2788C21.0974 23.1195 20.286 21.0205 20.5085 18.2752C20.539 17.8991 20.2589 17.5693 19.8826 17.5388C19.5076 17.5089 19.1767 17.7885 19.1462 18.1648C18.8264 22.1089 20.3948 24.8627 21.0311 25.8018C19.8385 28.4376 18.6624 30.865 17.4237 32.9368C16.7859 31.493 15.7869 28.742 15.7869 25.6787C15.7869 25.3013 15.4809 24.9954 15.1035 24.9954C14.7261 24.9954 14.4202 25.3013 14.4202 25.6787C14.4202 29.742 15.9918 33.1972 16.5573 34.309C15.2042 36.3308 13.7592 37.9119 12.1269 38.8741C7.15462 33.474 6.66964 23.342 15.3563 13.9604C16.3438 12.894 17.4275 11.8759 18.5774 10.9347C18.8696 10.6956 18.9125 10.2652 18.6734 9.9731C18.4343 9.68095 18.0038 9.63814 17.7118 9.87712C16.5134 10.8582 15.3835 11.9196 14.3535 13.0319C5.19044 22.928 5.70671 33.7143 10.9607 39.6232C6.3854 42.7022 0.724192 42.8946 0.664954 42.8963C0.287903 42.9064 -0.00960635 43.2202 0.000237397 43.5973C0.00999326 43.9685 0.313919 44.2627 0.68306 44.2627C0.689124 44.2627 0.695276 44.2627 0.701341 44.2626C0.963694 44.2556 7.00248 44.0578 11.9492 40.6029C13.4481 41.8259 15.7993 42.5699 18.6498 42.5699C21.8771 42.5699 25.7445 41.6161 29.7394 39.324C33.4403 37.2006 36.0937 33.9522 37.6258 29.6692C38.9378 26.0016 39.3802 21.5888 38.9053 16.9078C38.0586 8.56307 41.211 4.79757 44.7436 1.97153C44.966 1.79338 45.0547 1.49596 44.966 1.22508ZM37.5454 17.0457C37.9999 21.5255 37.5827 25.7315 36.3388 29.2087C34.9193 33.1771 32.47 36.1814 29.0592 38.1385C24.755 40.6082 21.1421 41.1678 18.869 41.2024C16.5452 41.2388 14.5358 40.7426 13.1873 39.8242C14.3096 39.0962 15.34 38.1198 16.3082 36.9412C16.3614 36.9416 16.419 36.9419 16.4832 36.9419C17.1543 36.9419 18.4045 36.9131 19.8798 36.7407C22.831 36.3958 25.1575 35.6676 26.7948 34.5761C27.1089 34.3668 27.1937 33.9424 26.9843 33.6285C26.775 33.3146 26.3507 33.2297 26.0368 33.439C23.5145 35.1205 19.4518 35.4857 17.3548 35.5578C18.6841 33.6619 19.9085 31.3854 21.116 28.8639C22.3044 28.861 25.4587 28.6039 28.4578 26.213C28.753 25.9777 28.8014 25.5478 28.5662 25.2527C28.3309 24.9576 27.9009 24.9091 27.6059 25.1443C25.4034 26.9002 23.0724 27.3541 21.7745 27.4628C22.5625 25.7577 23.3501 23.9588 24.1622 22.104C24.5813 21.1467 25.007 20.1752 25.4411 19.197C25.488 19.198 25.5375 19.1988 25.5896 19.1988C26.6196 19.1988 28.6709 18.9475 30.9251 17.2773C31.2283 17.0527 31.292 16.6247 31.0673 16.3214C30.8426 16.0182 30.4146 15.9546 30.1114 16.1792C28.7206 17.2097 27.4406 17.5967 26.6116 17.7401C26.4107 17.7749 26.2267 17.7969 26.0604 17.811C26.4587 16.9272 26.8653 16.0404 27.2826 15.1549C29.8285 9.75266 34.3449 6.49764 37.6854 4.71829C39.1335 3.94696 40.4928 3.37796 41.608 2.97138C40.6282 4.00383 39.672 5.2611 38.9296 6.81501C37.5853 9.62892 37.1326 12.9754 37.5454 17.0457Z" fill="#101111"/>
</g>
<defs>
<linearGradient id="paint0_linear_15_410" x1="26.1009" y1="1.41992" x2="26.1009" y2="41.8876" gradientUnits="userSpaceOnUse">
<stop stop-color="#C6D6C1"/>
<stop offset="1" stop-color="#687065"/>
</linearGradient>
<clipPath id="clip0_15_410">
<rect width="45" height="45" fill="white"/>
</clipPath>
</defs>
</svg>
