<svg width="64" height="64" viewBox="0 0 64 64" fill="none" xmlns="http://www.w3.org/2000/svg">
<path d="M47 36.5C47 35.56 46.64 34.68 45.98 34.04L30.96 19.29C30.85 19.18 30.71 19.09 30.55 19.05L27.29 18.05C27.2 18.02 27.1 18.01 27 18.01H5C4.45 18.01 4 18.46 4 19.01V37.01C4 37.56 4.45 38.01 5 38.01H14.61L26.83 50.02C27.5 50.68 28.4 51.01 29.31 51.01C30.31 51.01 31.33 50.62 32.12 49.84C32.63 49.34 32.99 48.72 33.18 48.06C34.58 48.8 36.43 48.53 37.68 47.3C38.29 46.7 38.7 45.92 38.83 45.1C40.07 45.39 41.48 45.03 42.49 44.03C43.25 43.28 43.69 42.27 43.68 41.24C43.68 40.96 43.65 40.68 43.58 40.42C44.38 40.3 45.17 39.92 45.8 39.3C46.56 38.55 47 37.54 46.99 36.51L47 36.5Z" fill="#E7C78A"/>
<path d="M37.8905 44.4799C37.6405 44.4799 37.3905 44.3899 37.2005 44.1999L29.4405 36.7199C29.0405 36.3399 29.0305 35.6999 29.4105 35.3099C29.7905 34.9099 30.4305 34.8999 30.8205 35.2799L38.5805 42.7599C38.9805 43.1399 38.9905 43.7799 38.6105 44.1699C38.4105 44.3699 38.1505 44.4799 37.8905 44.4799Z" fill="#E7C78A"/>
<path d="M41.2101 39.7499C40.9601 39.7499 40.7101 39.6599 40.5201 39.4699L33.5001 32.7199C33.1001 32.3399 33.0901 31.6999 33.4701 31.3099C33.8501 30.9099 34.4901 30.8999 34.8801 31.2799L41.9001 38.0299C42.3001 38.4099 42.3101 39.0499 41.9301 39.4399C41.7301 39.6399 41.4701 39.7499 41.2101 39.7499Z" fill="#E7C78A"/>
<path d="M31.5902 46.2899C31.3402 46.2899 31.0902 46.1999 30.9002 46.0099L25.3702 40.7099C24.9702 40.3299 24.9602 39.6999 25.3402 39.2999C25.7202 38.8999 26.3602 38.8899 26.7502 39.2699L32.2802 44.5699C32.6802 44.9499 32.6902 45.5799 32.3102 45.9799C32.1102 46.1899 31.8502 46.2899 31.5902 46.2899Z" fill="#E7C78A"/>
<path d="M32 8C31.45 8 31 7.55 31 7V3C31 2.45 31.45 2 32 2C32.55 2 33 2.45 33 3V7C33 7.55 32.55 8 32 8Z" fill="#E7C78A"/>
<path d="M32 62C31.45 62 31 61.55 31 61V57C31 56.45 31.45 56 32 56C32.55 56 33 56.45 33 57V61C33 61.55 32.55 62 32 62Z" fill="#E7C78A"/>
<path d="M49.6802 13.3201C49.4202 13.3201 49.1702 13.2201 48.9702 13.0301C48.5802 12.6401 48.5802 12.0101 48.9702 11.6201L51.8002 8.79006C52.1902 8.40006 52.8202 8.40006 53.2102 8.79006C53.6002 9.18006 53.6002 9.81006 53.2102 10.2001L50.3802 13.0301C50.1802 13.2301 49.9302 13.3201 49.6702 13.3201H49.6802Z" fill="#E7C78A"/>
<path d="M11.4898 55.51C11.2298 55.51 10.9798 55.41 10.7798 55.22C10.3898 54.83 10.3898 54.2 10.7798 53.81L13.6098 50.98C13.9998 50.59 14.6298 50.59 15.0198 50.98C15.4098 51.37 15.4098 52 15.0198 52.39L12.1898 55.22C11.9898 55.42 11.7398 55.51 11.4798 55.51H11.4898Z" fill="#E7C78A"/>
<path d="M14.3198 13.3201C14.0598 13.3201 13.8098 13.2201 13.6098 13.0301L10.7798 10.2001C10.3898 9.81006 10.3898 9.18006 10.7798 8.79006C11.1698 8.40006 11.7998 8.40006 12.1898 8.79006L15.0198 11.6201C15.4098 12.0101 15.4098 12.6401 15.0198 13.0301C14.8198 13.2301 14.5698 13.3201 14.3098 13.3201H14.3198Z" fill="#E7C78A"/>
<path d="M52.5102 55.51C52.2502 55.51 52.0002 55.41 51.8002 55.22L48.9702 52.39C48.5802 52 48.5802 51.37 48.9702 50.98C49.3602 50.59 49.9902 50.59 50.3802 50.98L53.2102 53.81C53.6002 54.2 53.6002 54.83 53.2102 55.22C53.0102 55.42 52.7602 55.51 52.5002 55.51H52.5102Z" fill="#E7C78A"/>
<path d="M58.9997 18H43.2997L37.0597 13.84C35.2197 12.61 32.7497 12.75 31.0497 14.19L26.5497 18L20.3497 23.24C20.1397 23.42 20.0097 23.68 19.9997 23.96C19.9897 24.24 20.0997 24.51 20.2897 24.71C21.9297 26.34 24.0997 27.24 26.3997 27.24C28.4697 27.24 30.4597 26.5 32.0397 25.14L34.6997 22.97L45.9797 34.04C46.6397 34.69 46.9997 35.56 46.9997 36.5C46.9997 37.02 46.8896 37.52 46.6896 38H58.9997C59.5497 38 59.9997 37.55 59.9997 37V19C59.9997 18.45 59.5497 18 58.9997 18Z" fill="#E7C78A"/>
<path d="M5 20H20.72C21.27 20 21.72 19.55 21.72 19C21.72 18.45 21.27 18 20.72 18H5C4.45 18 4 18.45 4 19C4 19.55 4.45 20 5 20Z" fill="#101111"/>
<path d="M45.98 34.04L33.82 22.1C33.44 21.73 32.84 21.72 32.45 22.07L30.72 23.64C29.52 24.67 27.99 25.24 26.4 25.24C25 25.24 23.66 24.81 22.54 24L32.34 15.71C33.36 14.85 34.84 14.76 35.94 15.5L42.44 19.83C42.6 19.94 42.8 20 42.99 20H58.99C59.54 20 59.99 19.55 59.99 19C59.99 18.45 59.54 18 58.99 18H43.29L37.04 13.84C35.2 12.61 32.73 12.75 31.04 14.19L20.34 23.24C20.13 23.42 20 23.68 19.99 23.96C19.98 24.24 20.08 24.51 20.28 24.71C21.91 26.34 24.08 27.24 26.39 27.24C28.46 27.24 30.45 26.5 32.03 25.14L33.08 24.19L44.56 35.46C44.83 35.73 44.98 36.1 44.98 36.51C44.98 37 44.76 37.49 44.38 37.87C43.73 38.52 42.74 38.65 42.04 38.16C42 38.13 41.96 38.11 41.93 38.08L41.9 38.05L34.88 31.3C34.48 30.92 33.85 30.93 33.47 31.33C33.09 31.73 33.1 32.36 33.5 32.74L40.52 39.49L40.56 39.53L41.24 40.2C41.49 40.45 41.63 40.76 41.66 41.1C41.71 41.63 41.49 42.18 41.06 42.6C40.33 43.32 39.21 43.4 38.58 42.78L37.84 42.05C37.84 42.05 37.8 42.03 37.78 42.01L30.81 35.29C30.41 34.91 29.78 34.92 29.4 35.32C29.02 35.72 29.03 36.35 29.43 36.73L36.47 43.52C36.72 43.79 36.86 44.13 36.86 44.52C36.86 45.01 36.64 45.5 36.26 45.88C35.53 46.6 34.41 46.67 33.77 46.05L32.28 44.59L26.75 39.29C26.35 38.91 25.72 38.92 25.34 39.32C24.96 39.72 24.97 40.35 25.37 40.73L30.89 46.02C31.24 46.36 31.31 46.77 31.31 47.05C31.31 47.54 31.09 48.04 30.72 48.41C30 49.12 28.86 49.2 28.23 48.58L15.72 36.29C15.53 36.11 15.28 36 15.02 36H5C4.45 36 4 36.45 4 37C4 37.55 4.45 38 5 38H14.61L26.83 50C27.5 50.67 28.4 51 29.32 51C30.32 51 31.34 50.61 32.13 49.83C32.64 49.33 33 48.71 33.18 48.04C34.58 48.78 36.43 48.51 37.67 47.29C38.29 46.68 38.69 45.9 38.82 45.08C40.06 45.37 41.47 45.01 42.48 44.01C43.33 43.17 43.76 42.04 43.67 40.91C43.66 40.74 43.63 40.57 43.59 40.41C44.4 40.29 45.18 39.91 45.81 39.29C46.57 38.54 47.01 37.53 47.01 36.51C47.01 35.56 46.65 34.69 45.99 34.04H45.98Z" fill="#101111"/>
<path d="M59.0002 36H49.9502C49.4002 36 48.9502 36.45 48.9502 37C48.9502 37.55 49.4002 38 49.9502 38H59.0002C59.5502 38 60.0002 37.55 60.0002 37C60.0002 36.45 59.5502 36 59.0002 36Z" fill="#101111"/>
<path d="M32 8C32.55 8 33 7.55 33 7V3C33 2.45 32.55 2 32 2C31.45 2 31 2.45 31 3V7C31 7.55 31.45 8 32 8Z" fill="#101111"/>
<path d="M32 56C31.45 56 31 56.45 31 57V61C31 61.55 31.45 62 32 62C32.55 62 33 61.55 33 61V57C33 56.45 32.55 56 32 56Z" fill="#101111"/>
<path d="M49.68 13.3201C49.94 13.3201 50.19 13.2201 50.39 13.0301L53.22 10.2001C53.61 9.81006 53.61 9.18006 53.22 8.79006C52.83 8.40006 52.2 8.40006 51.81 8.79006L48.98 11.6201C48.59 12.0101 48.59 12.6401 48.98 13.0301C49.18 13.2301 49.43 13.3201 49.69 13.3201H49.68Z" fill="#101111"/>
<path d="M13.6196 50.97L10.7896 53.8C10.3996 54.19 10.3996 54.82 10.7896 55.21C10.9896 55.41 11.2396 55.5 11.4996 55.5C11.7596 55.5 12.0096 55.4 12.2096 55.21L15.0396 52.38C15.4296 51.99 15.4296 51.36 15.0396 50.97C14.6496 50.58 14.0196 50.58 13.6296 50.97H13.6196Z" fill="#101111"/>
<path d="M13.6203 13.0301C13.8203 13.2301 14.0703 13.3201 14.3303 13.3201C14.5903 13.3201 14.8403 13.2201 15.0403 13.0301C15.4303 12.6401 15.4303 12.0101 15.0403 11.6201L12.2103 8.79006C11.8203 8.40006 11.1903 8.40006 10.8003 8.79006C10.4103 9.18006 10.4103 9.81006 10.8003 10.2001L13.6303 13.0301H13.6203Z" fill="#101111"/>
<path d="M50.3802 50.97C49.9902 50.58 49.3602 50.58 48.9702 50.97C48.5802 51.36 48.5802 51.99 48.9702 52.38L51.8002 55.21C52.0002 55.41 52.2502 55.5 52.5102 55.5C52.7702 55.5 53.0202 55.4 53.2202 55.21C53.6102 54.82 53.6102 54.19 53.2202 53.8L50.3902 50.97H50.3802Z" fill="#101111"/>
</svg>
