<svg width="64" height="64" viewBox="0 0 64 64" fill="none" xmlns="http://www.w3.org/2000/svg">
<path d="M5 20H20.72C21.27 20 21.72 19.55 21.72 19C21.72 18.45 21.27 18 20.72 18H5C4.45 18 4 18.45 4 19C4 19.55 4.45 20 5 20Z" fill="#101111"/>
<path d="M45.98 34.04L33.82 22.1C33.44 21.73 32.84 21.72 32.45 22.07L30.72 23.64C29.52 24.67 27.99 25.24 26.4 25.24C25 25.24 23.66 24.81 22.54 24L32.34 15.71C33.36 14.85 34.84 14.76 35.94 15.5L42.44 19.83C42.6 19.94 42.8 20 42.99 20H58.99C59.54 20 59.99 19.55 59.99 19C59.99 18.45 59.54 18 58.99 18H43.29L37.04 13.84C35.2 12.61 32.73 12.75 31.04 14.19L20.34 23.24C20.13 23.42 20 23.68 19.99 23.96C19.98 24.24 20.08 24.51 20.28 24.71C21.91 26.34 24.08 27.24 26.39 27.24C28.46 27.24 30.45 26.5 32.03 25.14L33.08 24.19L44.56 35.46C44.83 35.73 44.98 36.1 44.98 36.51C44.98 37 44.76 37.49 44.38 37.87C43.73 38.52 42.74 38.65 42.04 38.16C42 38.13 41.96 38.11 41.93 38.08L41.9 38.05L34.88 31.3C34.48 30.92 33.85 30.93 33.47 31.33C33.09 31.73 33.1 32.36 33.5 32.74L40.52 39.49L40.56 39.53L41.24 40.2C41.49 40.45 41.63 40.76 41.66 41.1C41.71 41.63 41.49 42.18 41.06 42.6C40.33 43.32 39.21 43.4 38.58 42.78L37.84 42.05C37.84 42.05 37.8 42.03 37.78 42.01L30.81 35.29C30.41 34.91 29.78 34.92 29.4 35.32C29.02 35.72 29.03 36.35 29.43 36.73L36.47 43.52C36.72 43.79 36.86 44.13 36.86 44.52C36.86 45.01 36.64 45.5 36.26 45.88C35.53 46.6 34.41 46.67 33.77 46.05L32.28 44.59L26.75 39.29C26.35 38.91 25.72 38.92 25.34 39.32C24.96 39.72 24.97 40.35 25.37 40.73L30.89 46.02C31.24 46.36 31.31 46.77 31.31 47.05C31.31 47.54 31.09 48.04 30.72 48.41C30 49.12 28.86 49.2 28.23 48.58L15.72 36.29C15.53 36.11 15.28 36 15.02 36H5C4.45 36 4 36.45 4 37C4 37.55 4.45 38 5 38H14.61L26.83 50C27.5 50.67 28.4 51 29.32 51C30.32 51 31.34 50.61 32.13 49.83C32.64 49.33 33 48.71 33.18 48.04C34.58 48.78 36.43 48.51 37.67 47.29C38.29 46.68 38.69 45.9 38.82 45.08C40.06 45.37 41.47 45.01 42.48 44.01C43.33 43.17 43.76 42.04 43.67 40.91C43.66 40.74 43.63 40.57 43.59 40.41C44.4 40.29 45.18 39.91 45.81 39.29C46.57 38.54 47.01 37.53 47.01 36.51C47.01 35.56 46.65 34.69 45.99 34.04H45.98Z" fill="#101111"/>
<path d="M59.0002 36H49.9502C49.4002 36 48.9502 36.45 48.9502 37C48.9502 37.55 49.4002 38 49.9502 38H59.0002C59.5502 38 60.0002 37.55 60.0002 37C60.0002 36.45 59.5502 36 59.0002 36Z" fill="#101111"/>
<path d="M32 8C32.55 8 33 7.55 33 7V3C33 2.45 32.55 2 32 2C31.45 2 31 2.45 31 3V7C31 7.55 31.45 8 32 8Z" fill="#101111"/>
<path d="M32 56C31.45 56 31 56.45 31 57V61C31 61.55 31.45 62 32 62C32.55 62 33 61.55 33 61V57C33 56.45 32.55 56 32 56Z" fill="#101111"/>
<path d="M49.68 13.3201C49.94 13.3201 50.19 13.2201 50.39 13.0301L53.22 10.2001C53.61 9.81006 53.61 9.18006 53.22 8.79006C52.83 8.40006 52.2 8.40006 51.81 8.79006L48.98 11.6201C48.59 12.0101 48.59 12.6401 48.98 13.0301C49.18 13.2301 49.43 13.3201 49.69 13.3201H49.68Z" fill="#101111"/>
<path d="M13.6196 50.97L10.7896 53.8C10.3996 54.19 10.3996 54.82 10.7896 55.21C10.9896 55.41 11.2396 55.5 11.4996 55.5C11.7596 55.5 12.0096 55.4 12.2096 55.21L15.0396 52.38C15.4296 51.99 15.4296 51.36 15.0396 50.97C14.6496 50.58 14.0196 50.58 13.6296 50.97H13.6196Z" fill="#101111"/>
<path d="M13.6203 13.0301C13.8203 13.2301 14.0703 13.3201 14.3303 13.3201C14.5903 13.3201 14.8403 13.2201 15.0403 13.0301C15.4303 12.6401 15.4303 12.0101 15.0403 11.6201L12.2103 8.79006C11.8203 8.40006 11.1903 8.40006 10.8003 8.79006C10.4103 9.18006 10.4103 9.81006 10.8003 10.2001L13.6303 13.0301H13.6203Z" fill="#101111"/>
<path d="M50.3802 50.97C49.9902 50.58 49.3602 50.58 48.9702 50.97C48.5802 51.36 48.5802 51.99 48.9702 52.38L51.8002 55.21C52.0002 55.41 52.2502 55.5 52.5102 55.5C52.7702 55.5 53.0202 55.4 53.2202 55.21C53.6102 54.82 53.6102 54.19 53.2202 53.8L50.3902 50.97H50.3802Z" fill="#101111"/>
</svg>
