<svg width="53" height="49" viewBox="0 0 53 49" fill="none" xmlns="http://www.w3.org/2000/svg">
<path d="M7.66016 22.9805C7.66016 22.9805 21.2742 18.9434 23.291 8.48828C23.291 8.48828 27.8457 22.8485 40.3711 22.7734C40.3711 22.7734 24.2227 25.2578 23.291 41.6133C23.291 41.6133 24.1191 24.8438 7.66016 22.9805Z" fill="#F4CBB5"/>
<path d="M1.55273 7.03C1.55273 7.03 6.37801 5.5991 7.09279 1.89355C7.09279 1.89355 8.70711 6.98321 13.1465 6.95661C13.1465 6.95661 7.423 7.83711 7.09279 13.634C7.09279 13.6341 7.38625 7.69043 1.55273 7.03Z" fill="#F4CBB5"/>
<path d="M34.6777 38.3597C34.6777 38.3597 41.4418 36.3538 42.4437 31.1594C42.4437 31.1594 44.7066 38.294 50.9297 38.2568C50.9297 38.2568 42.9066 39.4911 42.4437 47.6171C42.4437 47.6171 42.8552 39.2854 34.6777 38.3597Z" fill="#F4CBB5"/>
<path d="M33.332 39.3359C37.8983 39.3359 41.6133 43.0509 41.6133 47.6172C41.6133 48.1888 42.0768 48.6523 42.6484 48.6523C43.2201 48.6523 43.6836 48.1888 43.6836 47.6172C43.6836 43.0509 47.3986 39.3359 51.9648 39.3359C52.5365 39.3359 53 38.8724 53 38.3008C53 37.7292 52.5365 37.2656 51.9648 37.2656C47.3986 37.2656 43.6836 33.5507 43.6836 28.9844C43.6836 28.4128 43.2201 27.9492 42.6484 27.9492C42.0768 27.9492 41.6133 28.4128 41.6133 28.9844C41.6133 33.5507 37.8983 37.2656 33.332 37.2656C32.7604 37.2656 32.2969 37.7292 32.2969 38.3008C32.2969 38.8724 32.7604 39.3359 33.332 39.3359ZM42.6484 33.4947C43.6645 35.5851 45.3641 37.2846 47.4546 38.3008C45.3642 39.3169 43.6647 41.0164 42.6484 43.1069C41.6323 41.0165 39.9328 39.317 37.8423 38.3008C39.9328 37.2847 41.6323 35.5852 42.6484 33.4947Z" fill="#101111"/>
<path d="M1.03516 8.28125C3.88908 8.28125 6.21094 10.6031 6.21094 13.457C6.21094 14.0286 6.67438 14.4922 7.24609 14.4922C7.81781 14.4922 8.28125 14.0286 8.28125 13.457C8.28125 10.6031 10.6031 8.28125 13.457 8.28125C14.0287 8.28125 14.4922 7.81771 14.4922 7.24609C14.4922 6.67448 14.0287 6.21094 13.457 6.21094C10.6031 6.21094 8.28125 3.88908 8.28125 1.03516C8.28125 0.463543 7.81781 0 7.24609 0C6.67438 0 6.21094 0.463543 6.21094 1.03516C6.21094 3.88908 3.88908 6.21094 1.03516 6.21094C0.463439 6.21094 0 6.67448 0 7.24609C0 7.81771 0.463439 8.28125 1.03516 8.28125ZM7.24609 4.7642C7.85818 5.77969 8.7125 6.63411 9.72788 7.24609C8.71239 7.85808 7.85808 8.7125 7.24609 9.72798C6.63401 8.7125 5.77969 7.85808 4.76431 7.24609C5.77969 6.63411 6.63401 5.77969 7.24609 4.7642Z" fill="#101111"/>
<path d="M28.8809 29.2949C29.4526 29.2949 29.916 28.8315 29.916 28.2598C29.916 27.6881 29.4526 27.2246 28.8809 27.2246C28.3092 27.2246 27.8457 27.6881 27.8457 28.2598C27.8457 28.8315 28.3092 29.2949 28.8809 29.2949Z" fill="#101111"/>
<path d="M31.6425 25.899C31.9341 26.3906 32.5693 26.5527 33.0609 26.2609C35.7645 24.6566 38.865 23.8086 42.0273 23.8086C42.599 23.8086 43.0625 23.3451 43.0625 22.7734C43.0625 22.2018 42.599 21.7383 42.0273 21.7383C32.324 21.7383 24.4297 13.844 24.4297 4.14062C24.4297 3.56901 23.9662 3.10547 23.3945 3.10547C22.8228 3.10547 22.3594 3.56901 22.3594 4.14062C22.3594 13.844 14.4651 21.7383 4.76172 21.7383C4.19 21.7383 3.72656 22.2018 3.72656 22.7734C3.72656 23.3451 4.19 23.8086 4.76172 23.8086C14.4651 23.8086 22.3594 31.7029 22.3594 41.4062C22.3594 41.9779 22.8228 42.4414 23.3945 42.4414C23.9662 42.4414 24.4297 41.9779 24.4297 41.4062C24.4297 38.244 25.2777 35.1435 26.882 32.4398C27.1737 31.9481 27.0117 31.3131 26.5201 31.0214C26.0281 30.7293 25.3932 30.8917 25.1016 31.3832C24.4014 32.5631 23.8302 33.8102 23.3938 35.1027C21.4319 29.3186 16.8475 24.7349 11.0632 22.7734C16.8481 20.8118 21.4329 16.227 23.3945 10.4421C25.3559 16.2264 29.9397 20.8108 35.7237 22.7727C34.4313 23.2091 33.1842 23.7803 32.0042 24.4805C31.5127 24.7723 31.3506 25.4073 31.6425 25.899Z" fill="#101111"/>
</svg>
